<?xml version="1.0" encoding="utf-8"?>
<!-- Generator: Adobe Illustrator 27.3.1, SVG Export Plug-In . SVG Version: 6.00 Build 0)  -->
<svg version="1.1" id="Layer_1" xmlns="http://www.w3.org/2000/svg" xmlns:xlink="http://www.w3.org/1999/xlink" x="0px" y="0px"
	 viewBox="0 0 390.7 628.6" style="enable-background:new 0 0 390.7 628.6;" xml:space="preserve">
<style type="text/css">
	.st0{fill:#F6EEE1;}
	.st1{fill:#254830;}
</style>
<g>
	<g>
		<g>
			<g>
				<path class="st0" d="M86.9,29.1c5-1.1,10.2-1.2,15.3-0.5c14.3,2.9,25.5,13.3,34.5,24.2c-4.7-7.9-11.4-14.4-17.3-21.4
					c4.9,0.5,9.5,3.1,12.9,6.7c4.1,4.2,8.9,7.9,12.2,12.8c4.4,5.7,7.6,12.2,11.2,18.4c-3.3-9.5-9.7-17.5-13.7-26.7
					c10.2,8.2,18.7,18.5,24.6,30.2c3.4,6.3,6.9,12.6,9.6,19.2c-2.6-9.7-8-18.3-11.9-27.5c3,2.8,5.8,5.9,8.4,9.1
					c5.6,6.9,10,14.7,12.9,23c7.9,18.2,9.2,38.5,8.8,58.1c0.1,3.8-0.3,7.6,0.3,11.4c2.9-11.6,4.1-23.6,5-35.5
					c0.7-8.5,2.4-16.8,5.5-24.8c1.7,6.6,1.4,13.5,1.8,20.2c1.2-9.8,1.9-19.6,3.6-29.4c0.7-4.4,2.4-8.5,4.8-12.2
					c1.1,8.5,0.1,17.2,0.7,25.7c2.3-11.2,2.8-22.9,7.8-33.3c1.8-3.7,4.6-6.8,7.7-9.5c-2,7.8-4.2,15.7-5.8,23.6
					c2.9-5.2,4.4-11.2,8-16.1c4.5-6.7,11.4-11.9,19.4-13.5c-5.5,4.9-10.4,10.5-14.6,16.6c6.9-6.9,16.1-12.1,26-12.4
					c3.5-0.2,7.1-0.1,10.6,0.5c-8,3.4-16.1,6.6-23.5,11.2c4.1-0.6,8.2-1.8,12.3-1.1c-1.3,1.6-2.8,3.2-4.7,3.9
					c-5,1.9-10.2,3.4-14.7,6.5c4.8-1.9,9.6-4.3,15-4.4c-5.2,6.5-13.2,9.4-20.2,13.4c6.3-2,12.4-5.6,19.3-4.9c-2.9,4.3-7.7,6.5-12,9
					c-7.1,3.4-14.4,7.2-20,12.8c7.5-3.7,15.4-7.6,23.9-7.8c-8.8,9.5-20.6,15.2-31.2,22.4c6.3-2.2,12.5-5.1,19.4-5.2
					c-6.5,7.2-16.9,8.5-24.4,14.3c5.1-1.9,9.9-5,15.7-4.6c-6.8,4.9-12.9,10.8-18.9,16.7c-6.2,6.4-9.4,14.8-14.6,21.9
					c6.1-5.7,11.6-12,17.8-17.6c6.2-6.2,13.5-11.3,20.9-16.1c23.9-14.4,53.8-19.7,80.9-11.8c5.2,2.1,11,3.7,15,7.9
					c-14.5-3.4-29.4-5.8-44.2-4.1c-4.4,0.6-8.9,0.8-13.3,1.1c16.8,1.6,33.9,0.2,50.4,4.1c10.4,1.8,20.8,5.9,28.2,13.6
					c-9.5-2.2-18.6-6-28.3-7.4c-4.4-0.7-8.9-1.3-13.4-1.3c8.4,1.8,16.6,4.2,24.6,7.2c10.6,5,21.3,11.8,26.9,22.4
					c-4.3-2.3-8-5.6-12.2-8c-6-3.4-12.4-6.5-19.3-7.9c8,3.1,15,8.3,21.8,13.4c5.3,4,9.4,9.3,13,14.9c2.7,4.4,3.4,9.8,3.4,14.9
					c-4.4-9.2-12-16.2-18.9-23.6c1.6,2.8,3.6,5.4,4.4,8.6c1,3.9,1.3,8,1.4,12c-6.1-9.5-13.9-17.7-20.7-26.7c-0.8-1.1-1.8-2-2.8-2.9
					c3.6,5.3,6.2,11.1,7.8,17.4c-3.7-3.8-8-6.9-11.5-10.9c-3.8-4.5-8-8.6-11.4-13.4c2.9,6.4,8,11.4,10.6,17.9
					c-10.2-3.9-17.5-12.3-25.9-18.9c-3.1-2.3-5.9-5.1-9.2-7.2c5.3,6.3,11.5,11.9,15.6,19.2c-6.5-1.6-12.8-4.2-18.3-8.2
					c-4.2-3.2-8.8-5.9-13.3-8.6c-5.3-3.3-11.4-5-17.4-6.8c9.5,5.4,19.1,11.4,26.1,19.9c-7.7-1-14.8-4.1-22-6.7
					c-6-1.5-11.8-4.1-18-4.4c7.2,2.1,14.7,4.6,19.9,10.3c-13.7-1.5-27.7-2.5-41.4,0c-8.9,2.6-17.5,6.5-25.4,11.4
					c13.2-3.2,26.7-6,40.3-6.4c16.8-0.1,33.9,2.1,49.4,9c16,6.7,31.7,15.3,43.7,28c-9.8-5.2-20.2-8.9-30.3-13.4
					c-4.1-1.7-8.2-3.3-12.5-4.2c12.9,6.1,25.4,13.1,37.2,21.2c8.9,6.2,16.9,14.4,20.5,24.8c-10.1-8.6-20.3-17.4-32.4-23.1
					c3.9,2.9,7.9,5.5,11.2,9.1c6.6,7.1,14.4,13.5,18.5,22.6c6.5,14.5,6.9,30.8,6.1,46.5c-0.7,5.8-0.6,11.7-2,17.4
					c-1.9-13.7-5.4-27.2-8.2-40.8c-0.6,6.1,0.6,12.1,0.1,18.2c-0.6,6.3-0.9,12.5-1.6,18.8c-4.1-14.8-6.2-30-10.2-44.8
					c-1.5-5.3-2-10.8-4.1-15.9c1.4,11.5,2.6,23.1,2.3,34.6c-3.8-4.7-4.9-10.8-7-16.4c-3.5-9.9-5.9-20.3-9.4-30.2
					c1.6,9.4,4,18.8,4,28.4c-8.5-9.6-12.6-22.1-17.2-33.9c-2.7-7.7-6.1-15.1-9.3-22.5c4.4,13.4,6.9,27.3,8.9,41.3
					c-4.8-4.3-10.2-8.3-12.7-14.5c-5.6-12.2-9.8-25.3-18.3-35.9c5.5,10.4,9.3,21.8,10.1,33.7c-5.6-3.6-9.2-9.5-12.5-15.1
					c-4-7.2-8.9-13.9-13.7-20.6c4.9,8.3,10.9,16.5,11.9,26.4c-4.4-4.2-7.7-9.4-12.1-13.6c3.5,5.4,8,10,11.7,15.2
					c13,22.1,20.7,47.8,18.8,73.6c-2.8-6.6-3.5-13.8-5.9-20.6c-2.5-7.4-5.1-14.9-8.3-22c1.9,8.5,5.4,16.5,6.9,25.1
					c4.1,17.9,4.3,37.4-3.4,54.3c-0.4-9.3,2.1-18.6,0.8-27.9c-0.9-5.7-1.6-11.4-3-17c0.9,10.4,1.3,21,0,31.4
					c-1.7,12.7-8.2,24-16,33.9c0.5-2.2,1.2-4.3,2.1-6.4c3.8-8.7,6.9-17.8,8-27.3c0.5-5.2,1-10.4,1.2-15.6
					c-3,12.6-4.7,25.8-10.9,37.5c-8.2,16.3-22.7,28.5-38.5,37c9.6-10.1,18.3-21.1,25.5-33.1c-4.2,4.1-7.9,8.8-12.7,12.2
					c-4.6,3.8-10,6.4-15.2,9.2c8.3-11.1,18.1-21,26.2-32.2c3.4-4.7,7.5-8.8,10.1-14c-8.4,7.5-15.2,17-25.5,22
					c7-13.4,16-25.6,24.6-38c-8.1,6.6-12.3,17-21.2,22.6c0.6-2.7,1.5-5.3,2.6-7.9c3.7-8.7,7.2-17.7,12.6-25.6
					c4.8-7,9-14.5,11.8-22.5c-4.2,8-10.2,14.7-15.8,21.7c-2.9,3.8-6.9,6.6-10.1,10.2c2.5-20.2,15.7-36.7,21.2-55.9
					c-3.6,4.9-5.9,10.8-10,15.4c-3.9,4.2-6.8,9.1-9.8,14c-1.3-5.2,1-10.2,2.5-15.1c3.1-10.4,8.2-20.5,8.5-31.5
					c-1.1,9.6-6,17.9-10.2,26.2c0.1-7.9,1.7-15.7,1.3-23.7c-0.2-14.3-7-27.8-16.2-38.5c-1.9-1.8-4-3.3-6-5l-0.8,1.6
					c0.1-0.5,0.2-1.5,0.3-2c-3.1-2.1-6.6-3.3-9.9-5c5.5,6.8,12,12.8,16.7,20.3c7.3,11.5,13.9,24.7,12.1,38.8
					c-3.4-8.9-9.6-16.3-14.5-24.4c3.5,8.8,9.8,16.3,12,25.7c2.2,9.2,2.6,19.2,0.1,28.4c-1.8-7.8-2.7-15.8-5.6-23.2
					c1.2,9,3,18.2,1.4,27.4c-0.8,5.6-2.9,11-5.5,16c-0.1-7.6,1.8-15.1,0.8-22.6c-0.8,8.1-2.6,16.2-6.7,23.3
					c-6.6,11.7-18.2,20.4-31.5,22.9c7.6-4.7,13.8-11.4,19.1-18.5c-5.8,5.2-13.3,8.9-21.1,9.4c11.1-5.9,19-16,26.8-25.6
					c-4.9,5.1-10.7,9.2-16.7,12.8c2.8-4.6,5-9.6,8.6-13.6c2.5-2.7,5.2-5.1,7.3-8.1c-3.8,3.4-7.4,7.2-12.2,9.2
					c3.6-10.1,10.1-18.8,15-28.3c-4,5.6-9.7,9.4-15,13.6c1.1-3.2,1.4-6.6,2.8-9.7c3.5-8.6,9.3-16,12.2-24.8
					c-4.1,6.7-9.3,12.7-15.9,17.1c1.9-10.3,8.4-19,10.7-29.1c-3.4,6-6.4,12.5-11.3,17.5c-0.9-7.4,5.2-13.1,5.4-20.3
					c-1,4.1-2.4,8.2-5.1,11.5c-0.9-13.7,5.9-26.3,7-39.8c-2.3,7.7-6.1,14.9-8.9,22.4c-6.2,16.8-14,32.9-20.4,49.6
					c-3.7,8.1-6.6,16.6-10,24.9c-2.3-0.4-4.6-0.6-6.8-0.1c2.2,0.3,4.4,0.4,6.6,0.4c-2.7,6.8-5.3,13.6-7.7,20.4
					c-2.7-0.1-5.4-0.4-8.1,0.2c2.5,0.2,5.1-0.2,7.4,1.1c-2.8,6.7-5.1,13.5-7.8,20.3c-2.8-0.3-5.7-0.8-8.6-0.4
					c2.7,0.6,5.4,0.9,8.2,1.1c-1.6,4.5-2.8,9.1-4.6,13.5c-2.5-0.5-5.1-0.9-7.7-0.7c2.5,0.7,5.1,1,7.6,1.2c-2.7,6.9-5.1,14-7.3,21
					c-3-0.2-6.1-0.7-9.1-0.2c2.7,0.6,5.5,0.6,8.3,0.7c-0.3,1.6-0.7,3.1-1,4.6c-2.6,0.1-5.6-1.2-7.9,0.6c2.5,0.6,4.9,0.9,7.4,1.3
					c-3.1,9.2-5.5,18.7-7.7,28.1c-3-0.4-6.1-0.8-9.2-0.5c2.9,0.7,6,0.8,9,1.2c-4.9,17.3-8,35.1-10.3,52.9c-5-0.4-9.8-2.2-14.6-3.2
					c4.6,2.2,9.6,3.5,14.7,3.9c-0.4,4.4-0.8,8.8-0.9,13.1c-6.5,0.7-12.8-1.1-19.1-2.1c6.1,1.9,12.4,4.9,18.9,3.1
					c-0.2,10.1-0.8,20.1-0.5,30.2c-6.5,1-13.3,0.2-19.8-0.7c0.2,0.1,0.5,0.4,0.7,0.5c6.4,1.5,12.7,3.6,19.2,4.2
					c0.9,17,2.2,34,6.6,50.5c1.8,8.5,4.3,16.9,7,25.1c-5.6-2-11.7-2.1-17.6-1.5c-7,0.5-13.5,3.4-20.2,5.2c8-1,16.2-1.8,24.2-0.3
					c5.4,0.8,10.6,2.6,15.7,4.4c-0.1-1.1-0.3-3.2-0.4-4.2c0.9,2.6,1.4,5.3,2.3,7.9c21,2.1,41.8,5.9,62.7,9.3
					c9.8,1.4,19.4,3.9,29.1,5.9c-17.1-1.3-34.1-3.5-51.3-4.6c-35.9-2.5-72.1-4.6-108-0.2c-10.3,0.8-20.2,3.8-30.3,5.7
					c14.4-9.2,31.3-14.2,48.3-16.1c0-20.7-0.3-41.3,1.4-61.9c6.8,2,13.9,1.6,20.9,1.7c-6.9-1.4-14.3-2.2-20.2-6.4
					c0.2-9.7,1.5-19.3,2.3-29c2.2-14.7,3.8-29.5,6.9-44c2-8.9,3.7-17.8,5.8-26.6c0.2-0.1,0.6-0.3,0.7-0.4c4.1,4.7,10.6,6.5,16.6,7.2
					c-3-1.8-6.7-2-9.6-3.9c-2.3-2.7-3.6-6.1-5-9.3c-0.3,1-0.8,2.9-1.1,3.9l-0.5,0.1c0.7-7.5,4-14.7,5.8-22c3.2-9.5,6.6-19,9.7-28.6
					c6.9-17.3,13.3-34.8,21-51.7c12.6-28.9,26.5-57.3,40.2-85.6c6.9-15.4,14.4-30.5,21.5-45.8c-4.5,2.8-9.1,5.4-12.6,9.5
					c-4.7,4.6-7.9,10.4-12.1,15.3c-1.1-3.8,0.9-7.4,1.4-11.2c-3.3,7.3-4.4,15.6-9.7,22c0.3-4.9,0.4-9.7,0.5-14.6
					c-1.8,4.7-3.2,9.6-4,14.5c-0.8,2.9-1,6.2-3.3,8.4c-1.9-6.8-1.4-13.8-1-20.7c-3,11.6-2.8,23.9-6,35.4c-1.1-0.8-2.6-1.3-2.9-2.9
					c-1.7-5.3-1.6-10.9-1.8-16.4c-2.8,12.6-0.1,26-4.6,38.3c-2.8-6.2-3.4-13-3.9-19.6c-1.1,11.5-0.4,23.1-0.7,34.7
					c-3.6-4.1-5.5-9.3-6.8-14.5c-1.2,11-0.6,22.2,3.3,32.6c-8.1-7.4-11.3-18.7-10.7-29.5c-0.1-10.3,4.2-19.8,8.3-29
					c-6.9,9.8-11.5,21.5-11.2,33.6c-3.3-6.5-2.7-14.2-1.1-21.1c3.8-12.8,11.9-23.8,21.6-32.8c-5.6,4.1-10.9,8.7-15.3,14.1
					c-0.9,1-2,1.8-3,2.7c3.6-15.1,16.3-25.5,29.5-32.4c-6.3,1.8-11.9,5.5-17.6,8.6c4.8-7,11.1-13.2,18.7-17.2
					c10.2-5.4,21.3-9.4,32.8-11.1c2.4-0.4,4.8-0.7,6.9-1.8l-0.5,1.8c0.7-0.9,1.5-1.7,2.3-2.4c-6.4,1.9-13.2,0.9-19.6,2.3
					c-14.5,2-28,7.8-41.5,13c3.5-7.4,10.5-12.1,16.8-16.9c0.1-0.2,0.4-0.6,0.6-0.8c-7.3,4.3-14.2,9.3-20.6,15
					c-4.5,4.1-9.4,7.8-14.8,10.8c3.4-11.3,11.1-20.3,19.2-28.5c-4.4,2.9-8,6.8-12,10.2c-2.5,2.8-6.9,5.2-6.5,9.5
					c-0.1-0.6-0.3-1.8-0.4-2.4c-6.2,7.3-12.6,14.9-21.3,19.4c3.3-11.8,8.2-23.3,16-32.8c-10.5,9.4-17.2,22.1-27,32.1
					c-3.4,3.3-7.4,6-11.1,9c3.8-8.6,7.8-17.1,11.4-25.8c-4,6.1-8.4,11.9-12,18.3c-3.2,4.7-6.9,9-9.9,13.9c0.5-8.6,4-16.6,6.6-24.6
					c-4,7.1-7.3,14.6-12.3,21.1c-3.8,4.5-7.4,9.2-11.6,13.4c1.6-8.9,4.4-17.5,8.7-25.4c-9.4,12.2-18.7,24.5-25.8,38.2
					c-0.9-13.6,6.1-26.2,14-36.8c7.6-9,16.8-16.6,26.5-23.2c-6.8,3-13,7.3-18.3,12.4c-5.7,5.1-11.3,10.3-16.3,16.1
					c1.1-5.1,4.2-9.4,6.9-13.8c5-8.1,12.4-14.3,20.1-19.7c4.6-1.9,8.9-4.6,13.6-6.2c5.7-2.4,11.8-3.6,17.8-5
					c-10.6,0.4-21.1,3.1-30.4,8.1c-4,2.2-8.3,3.9-12.1,6.5c5.4-8.2,13.4-14.4,22.4-18.1c7.7-4,16.5-5.1,24.9-6.8
					c5.4-1.7,11.2-1.1,16.7-1.8c-10.1-1.7-20.4-0.2-30.6-0.6c5.7-3.6,12.3-5.4,18.9-6.6c20.3-3.6,41.6-1.5,60.9,5.6
					c11.9,4.4,23.4,9.9,34.1,16.8c-8.8-9.1-20.1-15.1-31.1-20.9c-5.6-3.1-12-4-17.4-7.4c-2.3-1.5-4.8-2.7-7.5-3.4
					c-5.9-1.8-12.4-0.8-18.2-3.3c4.1-1.2,8.1-2.8,12.3-3.2c6.5-1.1,13.1,0.1,19.6-0.1c-7.1-1.9-14.3-3.9-21.7-3.7
					c-12.7,0.9-25.1,4.4-37.8,4.5c7.6-5.8,16.5-9.5,25.2-13.4c-9.1,1.2-18.2,3.3-26.7,6.8c-5.7,2-11.5,4.7-17.7,4.4
					c5.3-5.2,11.1-9.9,17.1-14.3c-7.8,3.5-14.9,8.4-22.8,11.6c0.3,0.3,0.9,0.9,1.1,1.2c-0.5-0.1-1.5-0.4-2-0.5
					c-2.4,1.1-4.9,2.2-7.3,3.3c2.8-6,7.7-10.9,13.4-14.2c0.1-0.2,0.3-0.7,0.4-1c-5.3,3.2-10.9,6-15.9,9.7
					c-6.9,4.5-12.8,10.4-18.3,16.5c1.6-11.1,8.1-21.1,17.2-27.5C37.9,123,28,130,19.4,138.3c1.6-3.7,3.8-7.2,6.5-10.1
					c7.5-7.9,16.3-14.8,26.6-18.7c6.7-2.3,13.7-3.3,20.7-4.3c-3.8-0.7-7.8-0.7-11.6,0.2c-6.2,1.6-12.5,3-18.5,5.4
					c3.8-5,10.5-6.3,15.4-9.9c2.2-2.2,5.3-1.1,8.1-1.1c10.8-0.7,21.5,1.5,32.2,2.8c-8.4-2.9-17.3-4.4-26.2-4.4
					c-3.4,0-6.8,1-10.3,0.6c10.6-5,22.8-5.6,34.1-3.3c14.9,2.1,28.1,9.9,40.1,18.5c-6.7-6.5-14.8-11.5-23.4-15.2
					c-4.1-2-8.6-3.1-12.3-5.9c13.1,0.1,25.6,5.6,36.6,12.5c10.8,6,19.4,15,27.5,24.2c7.4,8.9,14.4,18.3,19.5,28.7
					c2.2,4.7,5.5,8.8,6.9,13.9c-2.1-11.5-5.2-23.3-11.9-33.1c-6.5-8.1-12.8-16.3-19.8-23.9c7.5,1.6,13.8,6.5,19.9,11.1
					c-9.9-11.4-23.7-18.2-35-28c6.1,0.8,12.1,2.6,17.4,5.6c4.1,2.1,7.6,5.2,11.9,7c-6.7-5.6-13.7-10.6-21.1-15.2
					c-8-6-17.4-10.2-24.3-17.4c10.7,0.6,20.5,5.5,30.1,9.7c-8.6-5.6-17.1-11.3-26.5-15.5c-6.1-3.2-12.4-6.4-17.7-11
					c3.3,1,6.8,1,10.1,1.9c4.1,1.2,8,2.6,12.1,3.7c-7.7-5.6-17.6-7.7-24.3-14.8c4.4-0.4,8.2,2.3,12.3,3c-1.2-0.6-2.4-1.5-3.9-1.6
					c-2.5-1.3-5.2-2-7.8-2.9c-3.7-2.2-7-5-10.3-7.6l0-0.4c5.5,0.6,10.8,1.9,16.2,3.1c-2.6-1.7-5.4-3.2-7.8-5.1
					C104,34.8,95.6,31.2,86.9,29.1z M165,234.4c-0.2,1.7,3.9,2.6,4.2,0.7C168.1,234.2,166.3,234.1,165,234.4z M158,257.2
					c1.8,0.3,3.6,0.5,5.5,0.5C161.9,256.3,159.7,256.5,158,257.2z"/>
			</g>
		</g>
	</g>
	<g>
		<g>
			<path class="st1" d="M212.3,470.4c-9.1,1.2-18,3.2-26.9,5.3c-32,7.7-63.9,16.3-95.6,25.2c-4.5,1-8.9,2.5-13.5,2.6
				c-2.5,0.2-5.2-1.4-5.8-3.9c-1.6-5.2-0.3-10.7,0.5-15.9c2-16.4,3.3-32.8,5.2-49.2c1-14.9,3.1-29.8,4.4-44.7
				c4.4-46,9.3-92,13.4-138.1c2.2-21.6,4.5-43.1,6.4-64.7c0.2-5,4.5-8.2,8.2-10.9c2.5-1.8,7.2-2.5,7-6.5c-1-2-3.3-2.6-5.3-2.8
				c-15.2-2.1-30.7-3.2-46.1-2.1c-7.8,0.9-15.9,0.8-23.3,4c0,1.7-0.4,4,1.7,4.6c5.5,2.1,11.5,6,12.2,12.4c-0.2,9.3-1,18.6-1.8,27.8
				c-2.4,42.8-6.5,85.5-8.7,128.3c-1,15.6-2.4,31.2-3.4,46.9c-2.1,40-4.9,80.1-6.5,120.1c-0.5,8-1.5,16.5,1.6,24.2
				c3,5.2,9.5,6.8,15,7.8c15.9,2.1,31.9,2.9,47.9,4c8.4,0.7,16.8,0.4,25.1,1.2c8.7-0.4,17.4,1,26.1,0.5c20.5,0.8,41.7,1.8,61.6-4.3
				c6.2-1.9,9.6-8.2,11.8-13.9c3.3-10.5,5.2-21.5,5.3-32.6c0.1-7.2,0.1-14.9-3.4-21.4C222.7,470.2,216.9,469.8,212.3,470.4z
				 M61,419.7c-1.5,20.4-3.3,40.7-4.9,61.1c0.1,2.4-3.2,3.6-4.8,2.1c-2-1.4-0.9-4-0.8-6c1-16.7,2.5-33.4,3.7-50.1l0.7-13.5
				c0.2-3,4-3.2,5.2-2.3C62.2,412.4,61.2,416.7,61,419.7z M62.4,184.9c0.2-1.6,1.2-2.4,2.5-2.6c8.1,0.2,16.3,0.1,24.4,0.1
				c3.8-0.1,3.8,1.6,3.8,3.4c-0.2,1.8-1.9,2.7-3.8,2.6c-8-0.2-16,0-24-0.1C63.4,188.5,62.2,186.6,62.4,184.9z"/>
			<path class="st1" d="M105.7,457.1c-2.7,1.8-6,2-8.8,3.4c-0.3,1.6-0.2,3.3-0.2,4.9c14.2,0.6,28.4-0.2,42.6,0.2
				c10.8-0.4,21.7,0.4,32.5-0.5c0.1-1.9,0.1-3.8-0.1-5.6c-5-2.6-10.9-2.1-16-4.5c-5.6-2.2-9.6-7.5-10.8-13.3
				c-1.3-9.2,2.1-18.2,3.9-27.1c5-15.7,10.6-31.2,16.8-46.5c14.2-13.2,28.8-25.8,42.9-39.1c9.7,8.1,18.4,17.3,28.1,25.4
				c14.3-14.6,26-31.6,39.1-47.2c4.3-5.1,8-10.6,12.7-15.4c1.9,2.1,3.7,4.3,5.4,6.6c1.7-9.7,4.5-19.1,6.4-28.7
				c-5.8,3-11.9,5.4-17.8,8.2c-3.1,1.4-8.9,3.7-8.9,3.7l7.6,4.1c-15.2,18.6-30.2,37.4-45.2,56.1c-7.9-7-15.6-14.2-23.3-21.4
				c-1.5-1.2-3.4-3.7-5.4-2.1c-11.5,10.3-23.1,20.7-34.5,31.1c2.3-6,4.4-12,6.7-17.9c7.9-22.6,17.1-44.8,24.3-67.7
				c2.7-8.5,6.3-16.8,8.9-25.4c5,12,8.9,24.4,13.6,36.5c5.6,16.8,13,32.9,18.1,49.8c4.3-4.5,7.8-9.7,11.8-14.5
				c4-5.2,8.6-10,12.1-15.5c-0.8-0.8-1.6-1.6-2.3-2.4c-0.8-0.9-1.5-1.7-2.1-2.6c-0.2-0.5-0.9-1.8-0.4-3.3c0.3-1,1-1.6,1.7-2.1
				c1.4-1.2,2.4-1.2,4.8-2.4c0.9-0.4,1.7-0.9,2.5-1.4c2.1-1.7,3.9-3.7,5.7-5.7c-2.9-9.5-6.5-18.7-10.2-27.9
				c-9.8-26.4-20.2-52.6-30.4-78.8c-3.8,0-7.6,0-11.4,0c-9.3,22.5-17.6,45.5-26.6,68.2c-6.9,19.5-14.9,38.6-22.1,58.1
				c-12.2,33-25.1,65.8-37.5,98.7c-5.8,14.5-10.5,29.5-17.8,43.3C117.7,444.2,113.7,452.7,105.7,457.1z"/>
			<path class="st1" d="M372.6,460.6c-6.1-1-12.4-2.1-17.7-5.5c-7.2-5.2-10.8-13.5-14.8-21.2c-3.6-9.1-7.4-18.2-10.7-27.4
				c-13.1-32.7-25.7-65.6-39-98.2c-2.8-0.4-5.3-1.5-7.3-3.4c-5.1,5.6-9.8,11.5-14.3,17.5c-5.8,7.1-11.7,14.1-17.2,21.5
				c-0.1,3.9,2.5,7.4,3.6,11.1c7.4,21,15.8,41.7,23.3,62.7c3.5,9.6,8,19.8,5.9,30.2c-1.2,6.7-8.6,8.7-14.2,10
				c-4.7,1.7-9.9,1.5-14.4,3.6c0,1.3,0,2.7,0,4c15.2,0.4,30.4,0.4,45.6,0.5c10,0.2,20-0.7,30-0.1c14,0.3,27.9-0.4,41.9-0.3
				C373,463.9,373.4,462,372.6,460.6z"/>
			<path class="st1" d="M193.7,431.3c8-0.1,16.1-0.1,24.1-0.1c0.3-23.7,0.1-47.4,0.2-71.2c-8.1-0.8-16.4-0.8-24.5,0
				C193.7,383.8,193.4,407.5,193.7,431.3z"/>
			<path class="st1" d="M229,362.4c-0.5,22.9-0.3,45.8-0.1,68.8c8,0.1,16,0,24,0.1c0.5-22.9-0.4-45.9,0.6-68.8
				C245.4,362.4,237.2,362.2,229,362.4z"/>
			<path class="st1" d="M158.9,400.5c-0.3,10.2-0.4,20.5-0.1,30.8c8,0,16.1-0.1,24.1-0.1c0.7-10-0.2-20,0.7-30
				C175.6,399.6,167.1,400.9,158.9,400.5z"/>
		</g>
	</g>
</g>
</svg>
